<?xml version="1.0" standalone="no"?>
<!DOCTYPE svg PUBLIC "-//W3C//DTD SVG 20010904//EN"
 "http://www.w3.org/TR/2001/REC-SVG-20010904/DTD/svg10.dtd">
<svg version="1.0" xmlns="http://www.w3.org/2000/svg"
 width="400.000000pt" height="400.000000pt" viewBox="0 0 400.000000 400.000000"
 preserveAspectRatio="xMidYMid meet">

<g transform="translate(0.000000,400.000000) scale(0.100000,-0.100000)"
fill="#000000" stroke="none">
<path d="M2208 3953 c-41 -44 -98 -133 -141 -223 -10 -19 -28 -53 -40 -75 -23
-40 -24 -40 -90 -43 -59 -3 -67 0 -82 20 -9 13 -58 81 -108 152 -51 71 -108
142 -128 158 l-37 30 -53 -18 c-30 -9 -63 -21 -74 -25 -11 -4 -40 -14 -65 -20
-25 -7 -49 -16 -55 -20 -5 -3 -35 -14 -65 -22 -40 -12 -67 -28 -99 -61 l-44
-45 6 -123 c4 -68 9 -161 13 -208 l6 -85 -39 -24 c-58 -38 -90 -33 -238 34
-127 57 -201 85 -225 85 -20 0 -38 -12 -66 -43 -60 -66 -134 -154 -164 -195
-15 -20 -42 -52 -59 -71 -56 -62 -56 -64 57 -213 35 -46 71 -94 80 -107 9 -13
27 -35 39 -49 28 -31 30 -77 4 -134 -11 -24 -22 -51 -25 -60 -4 -13 -16 -18
-38 -18 -18 0 -65 -7 -103 -15 -39 -9 -97 -20 -130 -24 -98 -14 -118 -22 -157
-59 -46 -44 -54 -68 -68 -202 -25 -243 -26 -221 12 -260 34 -35 96 -70 123
-70 9 0 34 -8 58 -18 49 -22 94 -39 160 -60 55 -19 64 -38 74 -157 l6 -70
-104 -96 c-57 -53 -120 -110 -139 -127 -19 -16 -42 -43 -51 -59 -16 -28 -16
-30 50 -164 71 -144 110 -205 155 -240 30 -24 72 -22 191 5 33 8 104 25 158
37 l97 23 57 -56 c74 -74 74 -72 -7 -348 -11 -36 -22 -83 -26 -106 -6 -39 -4
-43 42 -88 27 -26 78 -63 114 -82 118 -63 170 -92 183 -102 7 -6 25 -14 40
-17 26 -7 39 4 178 144 165 165 165 165 251 137 24 -8 59 -17 78 -21 35 -6 36
-8 67 -103 76 -232 93 -270 133 -303 31 -26 42 -29 110 -29 91 0 241 17 293
32 49 15 82 60 100 139 15 63 55 253 63 296 3 15 14 25 32 29 15 4 44 15 64
25 39 20 103 25 113 10 3 -5 42 -38 88 -72 45 -34 87 -67 92 -73 23 -27 123
-96 139 -96 19 0 255 179 329 249 47 45 57 72 38 109 -16 32 -50 117 -76 192
-14 41 -30 79 -35 85 -5 6 -12 29 -15 50 -6 34 -2 47 25 88 18 26 37 47 43 48
60 4 369 -25 388 -37 12 -7 119 95 119 112 0 7 9 33 19 56 19 42 84 221 96
265 5 18 -4 34 -40 72 -25 27 -65 61 -88 77 -23 15 -46 33 -52 39 -5 6 -45 35
-87 65 -78 55 -78 55 -78 101 0 105 -4 101 166 185 118 58 163 86 195 121 33
36 40 49 34 70 -3 14 -8 39 -11 57 -7 44 -43 201 -60 261 -9 35 -26 63 -54 90
l-40 39 -122 12 c-68 7 -159 13 -203 13 l-80 1 -18 40 c-9 22 -17 48 -17 57 0
17 43 97 109 203 65 105 94 170 84 191 -8 18 -88 101 -262 273 l-90 90 -48
-24 c-26 -13 -50 -26 -53 -30 -3 -4 -32 -20 -65 -37 -121 -62 -180 -94 -189
-103 -16 -16 -56 -12 -91 10 l-32 20 -6 121 c-4 67 -7 155 -7 194 0 59 -4 77
-22 100 -47 60 -69 74 -135 90 -120 28 -237 56 -274 66 -52 13 -50 14 -101
-38z m478 -1096 c2 -7 3 -108 2 -226 l-3 -213 -55 81 c-30 45 -59 89 -65 99
-5 9 -23 37 -40 62 -16 25 -35 54 -41 65 -10 19 -26 20 -275 27 -145 5 -347 7
-449 5 l-185 -2 3 -23 c1 -13 20 -49 41 -80 35 -51 68 -103 162 -252 16 -25
32 -50 36 -56 5 -5 13 -18 18 -27 6 -9 26 -40 46 -69 79 -115 129 -198 129
-213 0 -19 -27 -70 -50 -97 -8 -9 -24 -34 -35 -55 -11 -21 -22 -40 -25 -43 -5
-5 -101 -151 -175 -265 -18 -27 -62 -96 -99 -152 -36 -56 -66 -106 -66 -112 0
-8 136 -11 448 -11 l448 0 113 170 c62 94 114 170 114 170 1 0 1 -103 -1 -230
l-3 -230 -745 0 -746 0 20 33 c11 17 56 95 101 172 44 77 87 151 96 165 8 14
47 81 86 150 105 183 111 193 147 254 31 54 42 109 23 120 -5 4 -29 41 -52 84
-24 42 -48 84 -54 94 -5 9 -41 70 -78 135 -37 65 -78 136 -92 158 -13 22 -54
94 -90 160 -37 66 -74 127 -81 136 -8 8 -14 19 -14 22 0 4 333 7 740 7 591 0
742 -3 746 -13z"/>
</g>
</svg>
